<?xml version="1.0" encoding="utf-8"?>
<!-- Generator: Adobe Illustrator 24.2.1, SVG Export Plug-In . SVG Version: 6.00 Build 0)  -->
<svg version="1.1" id="Icon__x28_Outline_x29_" xmlns="http://www.w3.org/2000/svg" xmlns:xlink="http://www.w3.org/1999/xlink"
	 x="0px" y="0px" viewBox="0 0 96 96" style="enable-background:new 0 0 96 96;" xml:space="preserve">
<style type="text/css">
	.st0{fill:#009FDB;}
</style>
<g>
	<g>
		<rect x="17" y="43" className="st0" width="2" height="15"/>
		<rect x="77" y="43" className="st0" width="2" height="15"/>
	</g>
	<path d="M80,38h-6v-2c0-14.3-11.7-26-26-26S22,21.7,22,36v2h-6c-3.3,0-6,2.7-6,6v13c0,3.3,2.7,6,6,6h6c0,12.7,10.3,23,23,23h5.5
		c2.5,0,4.5-2,4.5-4.5S53,77,50.5,77h-5C43,77,41,79,41,81.5c0,0.8,0.2,1.5,0.6,2.2C31.6,82.1,24,73.4,24,63V36
		c0-13.2,10.8-24,24-24s24,10.8,24,24v27h8c3.3,0,6-2.7,6-6V44C86,40.7,83.3,38,80,38z M22,61h-6c-2.2,0-4-1.8-4-4V44
		c0-2.2,1.8-4,4-4h6V61z M45.5,79h5c1.4,0,2.5,1.1,2.5,2.5S51.9,84,50.5,84H48h-2.5c-1.4,0-2.5-1.1-2.5-2.5S44.1,79,45.5,79z M84,57
		c0,2.2-1.8,4-4,4h-6V40h6c2.2,0,4,1.8,4,4V57z"/>
</g>
</svg>
